<svg width="108" height="108" viewBox="0 0 108 108" fill="none" xmlns="http://www.w3.org/2000/svg">
<circle cx="4.99994" cy="19" r="5" fill="#EE5514" fill-opacity="0.1"/>
<circle cx="60.9999" cy="19" r="5" fill="#EE5514" fill-opacity="0.1"/>
<circle cx="32.9999" cy="19" r="5" fill="#EE5514" fill-opacity="0.1"/>
<circle cx="89" cy="19" r="5" fill="#EE5514" fill-opacity="0.1"/>
<circle cx="18.9999" cy="19" r="5" fill="#EE5514" fill-opacity="0.1"/>
<circle cx="74.9999" cy="19" r="5" fill="#EE5514" fill-opacity="0.1"/>
<circle cx="46.9999" cy="19" r="5" fill="#EE5514" fill-opacity="0.1"/>
<circle cx="103" cy="19" r="5" fill="#EE5514" fill-opacity="0.1"/>
<circle cx="4.99994" cy="47" r="5" fill="#EE5514" fill-opacity="0.1"/>
<circle cx="60.9999" cy="47" r="5" fill="#EE5514" fill-opacity="0.1"/>
<circle cx="32.9999" cy="47" r="5" fill="#EE5514" fill-opacity="0.1"/>
<circle cx="89" cy="47" r="5" fill="#EE5514" fill-opacity="0.1"/>
<circle cx="18.9999" cy="47" r="5" fill="#EE5514" fill-opacity="0.1"/>
<circle cx="74.9999" cy="47" r="5" fill="#EE5514" fill-opacity="0.1"/>
<circle cx="46.9999" cy="47" r="5" fill="#EE5514" fill-opacity="0.1"/>
<circle cx="103" cy="47" r="5" fill="#EE5514" fill-opacity="0.1"/>
<circle cx="4.99994" cy="75" r="5" fill="#EE5514" fill-opacity="0.1"/>
<circle cx="60.9999" cy="75" r="5" fill="#EE5514" fill-opacity="0.1"/>
<circle cx="32.9999" cy="75" r="5" fill="#EE5514" fill-opacity="0.1"/>
<circle cx="89" cy="75" r="5" fill="#EE5514" fill-opacity="0.1"/>
<circle cx="18.9999" cy="75" r="5" fill="#EE5514" fill-opacity="0.1"/>
<circle cx="74.9999" cy="75" r="5" fill="#EE5514" fill-opacity="0.1"/>
<circle cx="46.9999" cy="75" r="5" fill="#EE5514" fill-opacity="0.1"/>
<circle cx="103" cy="75" r="5" fill="#EE5514" fill-opacity="0.1"/>
<circle cx="4.99994" cy="103" r="5" fill="#EE5514" fill-opacity="0.1"/>
<circle cx="60.9999" cy="103" r="5" fill="#EE5514" fill-opacity="0.1"/>
<circle cx="32.9999" cy="103" r="5" fill="#EE5514" fill-opacity="0.1"/>
<circle cx="89" cy="103" r="5" fill="#EE5514" fill-opacity="0.1"/>
<circle cx="18.9999" cy="103" r="5" fill="#EE5514" fill-opacity="0.1"/>
<circle cx="74.9999" cy="103" r="5" fill="#EE5514" fill-opacity="0.1"/>
<circle cx="46.9999" cy="103" r="5" fill="#EE5514" fill-opacity="0.1"/>
<circle cx="103" cy="103" r="5" fill="#EE5514" fill-opacity="0.1"/>
<circle cx="4.99994" cy="5" r="5" fill="#EE5514" fill-opacity="0.1"/>
<circle cx="60.9999" cy="5" r="5" fill="#EE5514" fill-opacity="0.1"/>
<circle cx="32.9999" cy="5" r="5" fill="#EE5514" fill-opacity="0.1"/>
<circle cx="89" cy="5" r="5" fill="#EE5514" fill-opacity="0.1"/>
<circle cx="18.9999" cy="5" r="5" fill="#EE5514" fill-opacity="0.1"/>
<circle cx="74.9999" cy="5" r="5" fill="#EE5514" fill-opacity="0.1"/>
<circle cx="46.9999" cy="5" r="5" fill="#EE5514" fill-opacity="0.1"/>
<circle cx="103" cy="5" r="5" fill="#EE5514" fill-opacity="0.1"/>
<circle cx="4.99994" cy="33" r="5" fill="#EE5514" fill-opacity="0.1"/>
<circle cx="60.9999" cy="33" r="5" fill="#EE5514" fill-opacity="0.1"/>
<circle cx="32.9999" cy="33" r="5" fill="#EE5514" fill-opacity="0.1"/>
<circle cx="89" cy="33" r="5" fill="#EE5514" fill-opacity="0.1"/>
<circle cx="18.9999" cy="33" r="5" fill="#EE5514" fill-opacity="0.1"/>
<circle cx="74.9999" cy="33" r="5" fill="#EE5514" fill-opacity="0.1"/>
<circle cx="46.9999" cy="33" r="5" fill="#EE5514" fill-opacity="0.1"/>
<circle cx="103" cy="33" r="5" fill="#EE5514" fill-opacity="0.1"/>
<circle cx="4.99994" cy="61" r="5" fill="#EE5514" fill-opacity="0.1"/>
<circle cx="60.9999" cy="61" r="5" fill="#EE5514" fill-opacity="0.1"/>
<circle cx="32.9999" cy="61" r="5" fill="#EE5514" fill-opacity="0.1"/>
<circle cx="89" cy="61" r="5" fill="#EE5514" fill-opacity="0.1"/>
<circle cx="18.9999" cy="61" r="5" fill="#EE5514" fill-opacity="0.1"/>
<circle cx="74.9999" cy="61" r="5" fill="#EE5514" fill-opacity="0.1"/>
<circle cx="46.9999" cy="61" r="5" fill="#EE5514" fill-opacity="0.1"/>
<circle cx="103" cy="61" r="5" fill="#EE5514" fill-opacity="0.1"/>
<circle cx="4.99994" cy="89" r="5" fill="#EE5514" fill-opacity="0.1"/>
<circle cx="60.9999" cy="89" r="5" fill="#EE5514" fill-opacity="0.1"/>
<circle cx="32.9999" cy="89" r="5" fill="#EE5514" fill-opacity="0.1"/>
<circle cx="89" cy="89" r="5" fill="#EE5514" fill-opacity="0.1"/>
<circle cx="18.9999" cy="89" r="5" fill="#EE5514" fill-opacity="0.1"/>
<circle cx="74.9999" cy="89" r="5" fill="#EE5514" fill-opacity="0.1"/>
<circle cx="46.9999" cy="89" r="5" fill="#EE5514" fill-opacity="0.1"/>
<circle cx="103" cy="89" r="5" fill="#EE5514" fill-opacity="0.1"/>
</svg>
